<mxfile host="app.diagrams.net" agent="Mozilla/5.0 (X11; Linux x86_64) AppleWebKit/537.36 (KHTML, like Gecko) Chrome/131.0.0.0 Safari/537.36" version="24.8.9">
  <diagram name="Page-1" id="e7e014a7-5840-1c2e-5031-d8a46d1fe8dd">
    <mxGraphModel dx="2390" dy="2338" grid="1" gridSize="10" guides="1" tooltips="1" connect="1" arrows="1" fold="1" page="1" pageScale="1" pageWidth="1169" pageHeight="826" background="none" math="0" shadow="0">
      <root>
        <mxCell id="0" />
        <mxCell id="1" parent="0" />
        <mxCell id="5" value="" style="ellipse;shape=startState;fillColor=#000000;strokeColor=#ff0000;" parent="1" vertex="1">
          <mxGeometry x="270" y="990" width="30" height="30" as="geometry" />
        </mxCell>
        <mxCell id="6" value="" style="edgeStyle=elbowEdgeStyle;elbow=horizontal;verticalAlign=bottom;endArrow=open;endSize=8;strokeColor=#FF0000;endFill=1;rounded=0" parent="1" source="5" target="7" edge="1">
          <mxGeometry x="264.5" y="168" as="geometry">
            <mxPoint x="285" y="1060" as="targetPoint" />
          </mxGeometry>
        </mxCell>
        <mxCell id="7" value="idle" style="" parent="1" vertex="1">
          <mxGeometry x="230" y="1060" width="110" height="50" as="geometry" />
        </mxCell>
        <mxCell id="8" value="user action" style="" parent="1" vertex="1">
          <mxGeometry x="230" y="1170" width="110" height="50" as="geometry" />
        </mxCell>
        <mxCell id="9" value="" style="endArrow=open;strokeColor=#FF0000;endFill=1;rounded=0" parent="1" source="7" target="8" edge="1">
          <mxGeometry relative="1" as="geometry" />
        </mxCell>
        <mxCell id="10" value="post command" style="" parent="1" vertex="1">
          <mxGeometry x="230" y="1275" width="110" height="50" as="geometry" />
        </mxCell>
        <mxCell id="11" value="" style="endArrow=open;strokeColor=#FF0000;endFill=1;rounded=0" parent="1" source="8" target="10" edge="1">
          <mxGeometry relative="1" as="geometry" />
        </mxCell>
        <mxCell id="12" value="" style="edgeStyle=elbowEdgeStyle;elbow=horizontal;strokeColor=#FF0000;endArrow=open;endFill=1;rounded=0" parent="1" source="10" target="7" edge="1">
          <mxGeometry width="100" height="100" relative="1" as="geometry">
            <mxPoint x="330" y="1240" as="sourcePoint" />
            <mxPoint x="430" y="1140" as="targetPoint" />
            <Array as="points">
              <mxPoint x="200" y="1200" />
            </Array>
          </mxGeometry>
        </mxCell>
        <mxCell id="13" value="" style="ellipse;shape=startState;fillColor=#000000;strokeColor=#ff0000;" parent="1" vertex="1">
          <mxGeometry x="510" y="990" width="30" height="30" as="geometry" />
        </mxCell>
        <mxCell id="14" value="" style="edgeStyle=elbowEdgeStyle;elbow=horizontal;verticalAlign=bottom;endArrow=open;endSize=8;strokeColor=#FF0000;endFill=1;rounded=0" parent="1" source="13" target="15" edge="1">
          <mxGeometry x="484.5" y="148" as="geometry">
            <mxPoint x="505" y="1040" as="targetPoint" />
          </mxGeometry>
        </mxCell>
        <mxCell id="15" value="idle" style="" parent="1" vertex="1">
          <mxGeometry x="470" y="1060" width="110" height="50" as="geometry" />
        </mxCell>
        <mxCell id="16" value="check for &#xa;new commands" style="" parent="1" vertex="1">
          <mxGeometry x="470" y="1170" width="110" height="50" as="geometry" />
        </mxCell>
        <mxCell id="17" value="" style="endArrow=open;strokeColor=#FF0000;endFill=1;rounded=0" parent="1" source="15" target="16" edge="1">
          <mxGeometry relative="1" as="geometry" />
        </mxCell>
        <mxCell id="18" value="command queue" style="" parent="1" vertex="1">
          <mxGeometry x="470" y="1275" width="110" height="50" as="geometry" />
        </mxCell>
        <mxCell id="19" value="" style="endArrow=open;strokeColor=#FF0000;endFill=1;rounded=0" parent="1" source="16" target="18" edge="1">
          <mxGeometry relative="1" as="geometry" />
        </mxCell>
        <mxCell id="21" value="queue empty" style="rhombus;fillColor=#ffffc0;strokeColor=#ff0000;" parent="1" vertex="1">
          <mxGeometry x="605" y="1175" width="80" height="40" as="geometry" />
        </mxCell>
        <mxCell id="22" value="yes" style="edgeStyle=elbowEdgeStyle;elbow=horizontal;align=left;verticalAlign=bottom;endArrow=open;endSize=8;strokeColor=#FF0000;exitX=0.5;exitY=0;endFill=1;rounded=0;entryX=0.75;entryY=0.5;entryPerimeter=0" parent="1" source="21" target="25" edge="1">
          <mxGeometry x="-1" relative="1" as="geometry">
            <mxPoint x="610" y="1100" as="targetPoint" />
            <Array as="points">
              <mxPoint x="640" y="1130" />
            </Array>
          </mxGeometry>
        </mxCell>
        <mxCell id="23" value="no" style="edgeStyle=elbowEdgeStyle;elbow=horizontal;align=left;verticalAlign=top;endArrow=open;endSize=8;strokeColor=#FF0000;endFill=1;rounded=0" parent="1" source="21" target="30" edge="1">
          <mxGeometry x="-1" relative="1" as="geometry">
            <mxPoint x="640" y="1255" as="targetPoint" />
          </mxGeometry>
        </mxCell>
        <mxCell id="24" value="" style="endArrow=open;strokeColor=#FF0000;endFill=1;rounded=0" parent="1" source="16" target="21" edge="1">
          <mxGeometry relative="1" as="geometry" />
        </mxCell>
        <mxCell id="25" value="" style="shape=line;strokeWidth=6;strokeColor=#ff0000;rotation=90" parent="1" vertex="1">
          <mxGeometry x="580" y="1077.5" width="50" height="15" as="geometry" />
        </mxCell>
        <mxCell id="26" value="" style="edgeStyle=elbowEdgeStyle;elbow=horizontal;verticalAlign=bottom;endArrow=open;endSize=8;strokeColor=#FF0000;endFill=1;rounded=0" parent="1" source="25" target="15" edge="1">
          <mxGeometry x="574.5" y="218" as="geometry">
            <mxPoint x="680" y="1090" as="targetPoint" />
          </mxGeometry>
        </mxCell>
        <mxCell id="30" value="dispatch&#xa;command&#xa;worker thread" style="" parent="1" vertex="1">
          <mxGeometry x="590" y="1275" width="110" height="50" as="geometry" />
        </mxCell>
        <mxCell id="31" value="critical&#xa;section" style="shape=note;whiteSpace=wrap;size=17" parent="1" vertex="1">
          <mxGeometry x="555" y="1440" width="100" height="50" as="geometry" />
        </mxCell>
        <mxCell id="32" value="" style="endArrow=none;strokeColor=#FF0000;endFill=0;rounded=0;dashed=1" parent="1" source="18" target="31" edge="1">
          <mxGeometry relative="1" as="geometry" />
        </mxCell>
        <mxCell id="34" value="" style="whiteSpace=wrap;strokeColor=#FF0000;fillColor=#FF0000" parent="1" vertex="1">
          <mxGeometry x="695" y="1345" width="5" height="45" as="geometry" />
        </mxCell>
        <mxCell id="41" value="" style="edgeStyle=elbowEdgeStyle;elbow=horizontal;entryX=0;entryY=0.5;strokeColor=#FF0000;endArrow=open;endFill=1;rounded=0" parent="1" source="30" target="34" edge="1">
          <mxGeometry width="100" height="100" relative="1" as="geometry">
            <mxPoint x="510" y="1430" as="sourcePoint" />
            <mxPoint x="610" y="1330" as="targetPoint" />
            <Array as="points">
              <mxPoint x="645" y="1350" />
            </Array>
          </mxGeometry>
        </mxCell>
        <mxCell id="33" value="process&#xa;command" style="" parent="1" vertex="1">
          <mxGeometry x="820" y="1355" width="110" height="50" as="geometry" />
        </mxCell>
        <mxCell id="35" value="" style="edgeStyle=elbowEdgeStyle;elbow=horizontal;strokeColor=#FF0000;endArrow=open;endFill=1;rounded=0;entryX=0.25;entryY=0.5;entryPerimeter=0" parent="1" target="25" edge="1">
          <mxGeometry width="100" height="100" relative="1" as="geometry">
            <mxPoint x="700" y="1360" as="sourcePoint" />
            <mxPoint x="610" y="1070" as="targetPoint" />
            <Array as="points">
              <mxPoint x="720" y="1085" />
            </Array>
          </mxGeometry>
        </mxCell>
        <mxCell id="37" value="" style="edgeStyle=none;strokeColor=#FF0000;endArrow=open;endFill=1;rounded=0" parent="1" target="33" edge="1">
          <mxGeometry width="100" height="100" relative="1" as="geometry">
            <mxPoint x="700" y="1379.5" as="sourcePoint" />
            <mxPoint x="820" y="1379.5" as="targetPoint" />
          </mxGeometry>
        </mxCell>
        <mxCell id="38" value="" style="ellipse;shape=endState;fillColor=#000000;strokeColor=#ff0000" parent="1" vertex="1">
          <mxGeometry x="860" y="1450" width="30" height="30" as="geometry" />
        </mxCell>
        <mxCell id="39" value="" style="endArrow=open;strokeColor=#FF0000;endFill=1;rounded=0" parent="1" source="33" target="38" edge="1">
          <mxGeometry relative="1" as="geometry" />
        </mxCell>
        <mxCell id="20" value="" style="endArrow=open;strokeColor=#FF0000;endFill=1;rounded=0" parent="1" source="10" target="18" edge="1">
          <mxGeometry relative="1" as="geometry" />
        </mxCell>
        <mxCell id="EjYSQzHJDgB1Ex0AdEF5-138" style="edgeStyle=orthogonalEdgeStyle;rounded=0;orthogonalLoop=1;jettySize=auto;html=1;" edge="1" parent="1" source="EjYSQzHJDgB1Ex0AdEF5-113" target="EjYSQzHJDgB1Ex0AdEF5-115">
          <mxGeometry relative="1" as="geometry" />
        </mxCell>
        <mxCell id="EjYSQzHJDgB1Ex0AdEF5-113" value="" style="ellipse;shape=startState;fillColor=#000000;strokeColor=#ff0000;" vertex="1" parent="1">
          <mxGeometry x="370" y="-710" width="30" height="30" as="geometry" />
        </mxCell>
        <mxCell id="EjYSQzHJDgB1Ex0AdEF5-137" style="edgeStyle=orthogonalEdgeStyle;rounded=0;orthogonalLoop=1;jettySize=auto;html=1;" edge="1" parent="1" source="EjYSQzHJDgB1Ex0AdEF5-115" target="EjYSQzHJDgB1Ex0AdEF5-120">
          <mxGeometry relative="1" as="geometry" />
        </mxCell>
        <mxCell id="EjYSQzHJDgB1Ex0AdEF5-115" value="User&#xa;Authentication" style="" vertex="1" parent="1">
          <mxGeometry x="470" y="-720" width="110" height="50" as="geometry" />
        </mxCell>
        <mxCell id="EjYSQzHJDgB1Ex0AdEF5-145" style="edgeStyle=orthogonalEdgeStyle;rounded=0;orthogonalLoop=1;jettySize=auto;html=1;entryX=0.5;entryY=0;entryDx=0;entryDy=0;" edge="1" parent="1" source="EjYSQzHJDgB1Ex0AdEF5-120" target="EjYSQzHJDgB1Ex0AdEF5-150">
          <mxGeometry relative="1" as="geometry">
            <mxPoint x="200" y="-480" as="targetPoint" />
          </mxGeometry>
        </mxCell>
        <mxCell id="EjYSQzHJDgB1Ex0AdEF5-147" value="[ Candidate ]" style="edgeLabel;html=1;align=center;verticalAlign=middle;resizable=0;points=[];" vertex="1" connectable="0" parent="EjYSQzHJDgB1Ex0AdEF5-145">
          <mxGeometry x="-0.3644" y="1" relative="1" as="geometry">
            <mxPoint x="-12" y="-16" as="offset" />
          </mxGeometry>
        </mxCell>
        <mxCell id="EjYSQzHJDgB1Ex0AdEF5-146" style="edgeStyle=orthogonalEdgeStyle;rounded=0;orthogonalLoop=1;jettySize=auto;html=1;entryX=0.5;entryY=0;entryDx=0;entryDy=0;" edge="1" parent="1" source="EjYSQzHJDgB1Ex0AdEF5-120" target="EjYSQzHJDgB1Ex0AdEF5-151">
          <mxGeometry relative="1" as="geometry">
            <mxPoint x="860" y="-480" as="targetPoint" />
            <Array as="points">
              <mxPoint x="825" y="-555" />
            </Array>
          </mxGeometry>
        </mxCell>
        <mxCell id="EjYSQzHJDgB1Ex0AdEF5-148" value="[ Recrutier ]" style="edgeLabel;html=1;align=center;verticalAlign=middle;resizable=0;points=[];" vertex="1" connectable="0" parent="EjYSQzHJDgB1Ex0AdEF5-146">
          <mxGeometry x="-0.1262" y="2" relative="1" as="geometry">
            <mxPoint x="-21" y="-13" as="offset" />
          </mxGeometry>
        </mxCell>
        <mxCell id="EjYSQzHJDgB1Ex0AdEF5-120" value="Candidate or Recruiter" style="rhombus;fillColor=#ffffc0;strokeColor=#ff0000;" vertex="1" parent="1">
          <mxGeometry x="442.5" y="-600" width="165" height="90" as="geometry" />
        </mxCell>
        <mxCell id="EjYSQzHJDgB1Ex0AdEF5-155" value="" style="edgeStyle=orthogonalEdgeStyle;rounded=0;orthogonalLoop=1;jettySize=auto;html=1;" edge="1" parent="1" source="EjYSQzHJDgB1Ex0AdEF5-150" target="EjYSQzHJDgB1Ex0AdEF5-154">
          <mxGeometry relative="1" as="geometry" />
        </mxCell>
        <mxCell id="EjYSQzHJDgB1Ex0AdEF5-150" value="Google OAuth 2.0" style="" vertex="1" parent="1">
          <mxGeometry x="180" y="-480" width="110" height="50" as="geometry" />
        </mxCell>
        <mxCell id="EjYSQzHJDgB1Ex0AdEF5-173" value="" style="edgeStyle=orthogonalEdgeStyle;rounded=0;orthogonalLoop=1;jettySize=auto;html=1;" edge="1" parent="1" source="EjYSQzHJDgB1Ex0AdEF5-151" target="EjYSQzHJDgB1Ex0AdEF5-172">
          <mxGeometry relative="1" as="geometry" />
        </mxCell>
        <mxCell id="EjYSQzHJDgB1Ex0AdEF5-151" value="Google OAuth 2.0" style="" vertex="1" parent="1">
          <mxGeometry x="770" y="-480" width="110" height="50" as="geometry" />
        </mxCell>
        <mxCell id="EjYSQzHJDgB1Ex0AdEF5-157" style="edgeStyle=orthogonalEdgeStyle;rounded=0;orthogonalLoop=1;jettySize=auto;html=1;" edge="1" parent="1" source="EjYSQzHJDgB1Ex0AdEF5-154" target="EjYSQzHJDgB1Ex0AdEF5-156">
          <mxGeometry relative="1" as="geometry" />
        </mxCell>
        <mxCell id="EjYSQzHJDgB1Ex0AdEF5-154" value="Upload Resume" style="" vertex="1" parent="1">
          <mxGeometry x="180" y="-390" width="110" height="50" as="geometry" />
        </mxCell>
        <mxCell id="EjYSQzHJDgB1Ex0AdEF5-159" value="" style="edgeStyle=orthogonalEdgeStyle;rounded=0;orthogonalLoop=1;jettySize=auto;html=1;" edge="1" parent="1" source="EjYSQzHJDgB1Ex0AdEF5-156" target="EjYSQzHJDgB1Ex0AdEF5-158">
          <mxGeometry relative="1" as="geometry" />
        </mxCell>
        <mxCell id="EjYSQzHJDgB1Ex0AdEF5-169" style="edgeStyle=orthogonalEdgeStyle;rounded=0;orthogonalLoop=1;jettySize=auto;html=1;entryX=0;entryY=0.5;entryDx=0;entryDy=0;" edge="1" parent="1" source="EjYSQzHJDgB1Ex0AdEF5-156" target="EjYSQzHJDgB1Ex0AdEF5-168">
          <mxGeometry relative="1" as="geometry" />
        </mxCell>
        <mxCell id="EjYSQzHJDgB1Ex0AdEF5-156" value="Messages &#xa;Available" style="rhombus;fillColor=#ffffc0;strokeColor=#ff0000;" vertex="1" parent="1">
          <mxGeometry x="177.5" y="-300" width="115" height="80" as="geometry" />
        </mxCell>
        <mxCell id="EjYSQzHJDgB1Ex0AdEF5-161" value="" style="edgeStyle=orthogonalEdgeStyle;rounded=0;orthogonalLoop=1;jettySize=auto;html=1;entryX=0.5;entryY=0;entryDx=0;entryDy=0;" edge="1" parent="1" source="EjYSQzHJDgB1Ex0AdEF5-158" target="EjYSQzHJDgB1Ex0AdEF5-162">
          <mxGeometry relative="1" as="geometry">
            <mxPoint x="235" y="-50" as="targetPoint" />
          </mxGeometry>
        </mxCell>
        <mxCell id="EjYSQzHJDgB1Ex0AdEF5-158" value="Read &amp;amp; Reply to Messages" style="whiteSpace=wrap;html=1;" vertex="1" parent="1">
          <mxGeometry x="175" y="-180" width="120" height="60" as="geometry" />
        </mxCell>
        <mxCell id="EjYSQzHJDgB1Ex0AdEF5-164" value="" style="edgeStyle=orthogonalEdgeStyle;rounded=0;orthogonalLoop=1;jettySize=auto;html=1;" edge="1" parent="1" source="EjYSQzHJDgB1Ex0AdEF5-162" target="EjYSQzHJDgB1Ex0AdEF5-163">
          <mxGeometry relative="1" as="geometry" />
        </mxCell>
        <mxCell id="EjYSQzHJDgB1Ex0AdEF5-171" style="edgeStyle=orthogonalEdgeStyle;rounded=0;orthogonalLoop=1;jettySize=auto;html=1;exitX=1;exitY=0.5;exitDx=0;exitDy=0;entryX=0;entryY=0.5;entryDx=0;entryDy=0;" edge="1" parent="1" source="EjYSQzHJDgB1Ex0AdEF5-162" target="EjYSQzHJDgB1Ex0AdEF5-170">
          <mxGeometry relative="1" as="geometry" />
        </mxCell>
        <mxCell id="EjYSQzHJDgB1Ex0AdEF5-162" value="Questionnaire&#xa;Available" style="rhombus;fillColor=#ffffc0;strokeColor=#ff0000;" vertex="1" parent="1">
          <mxGeometry x="177.5" y="-60" width="115" height="80" as="geometry" />
        </mxCell>
        <mxCell id="EjYSQzHJDgB1Ex0AdEF5-167" style="edgeStyle=orthogonalEdgeStyle;rounded=0;orthogonalLoop=1;jettySize=auto;html=1;entryX=0.5;entryY=0;entryDx=0;entryDy=0;" edge="1" parent="1" source="EjYSQzHJDgB1Ex0AdEF5-163" target="EjYSQzHJDgB1Ex0AdEF5-165">
          <mxGeometry relative="1" as="geometry" />
        </mxCell>
        <mxCell id="EjYSQzHJDgB1Ex0AdEF5-163" value="Attempt Test" style="whiteSpace=wrap;html=1;" vertex="1" parent="1">
          <mxGeometry x="175" y="70" width="120" height="40" as="geometry" />
        </mxCell>
        <mxCell id="EjYSQzHJDgB1Ex0AdEF5-165" value="" style="ellipse;shape=endState;fillColor=#000000;strokeColor=#ff0000" vertex="1" parent="1">
          <mxGeometry x="220" y="150" width="30" height="30" as="geometry" />
        </mxCell>
        <mxCell id="EjYSQzHJDgB1Ex0AdEF5-168" value="" style="ellipse;shape=endState;fillColor=#000000;strokeColor=#ff0000" vertex="1" parent="1">
          <mxGeometry x="340" y="-275" width="30" height="30" as="geometry" />
        </mxCell>
        <mxCell id="EjYSQzHJDgB1Ex0AdEF5-170" value="" style="ellipse;shape=endState;fillColor=#000000;strokeColor=#ff0000" vertex="1" parent="1">
          <mxGeometry x="340" y="-35" width="30" height="30" as="geometry" />
        </mxCell>
        <mxCell id="EjYSQzHJDgB1Ex0AdEF5-175" value="" style="edgeStyle=orthogonalEdgeStyle;rounded=0;orthogonalLoop=1;jettySize=auto;html=1;" edge="1" parent="1" source="EjYSQzHJDgB1Ex0AdEF5-172" target="EjYSQzHJDgB1Ex0AdEF5-174">
          <mxGeometry relative="1" as="geometry" />
        </mxCell>
        <mxCell id="EjYSQzHJDgB1Ex0AdEF5-172" value="Enter Query" style="" vertex="1" parent="1">
          <mxGeometry x="770" y="-390" width="110" height="50" as="geometry" />
        </mxCell>
        <mxCell id="EjYSQzHJDgB1Ex0AdEF5-177" style="edgeStyle=orthogonalEdgeStyle;rounded=0;orthogonalLoop=1;jettySize=auto;html=1;entryX=0.5;entryY=0;entryDx=0;entryDy=0;" edge="1" parent="1" source="EjYSQzHJDgB1Ex0AdEF5-174" target="EjYSQzHJDgB1Ex0AdEF5-176">
          <mxGeometry relative="1" as="geometry" />
        </mxCell>
        <mxCell id="EjYSQzHJDgB1Ex0AdEF5-174" value="Selecting Matched &#xa;Resumes" style="" vertex="1" parent="1">
          <mxGeometry x="770" y="-300" width="110" height="50" as="geometry" />
        </mxCell>
        <mxCell id="EjYSQzHJDgB1Ex0AdEF5-180" value="" style="edgeStyle=orthogonalEdgeStyle;rounded=0;orthogonalLoop=1;jettySize=auto;html=1;" edge="1" parent="1" source="EjYSQzHJDgB1Ex0AdEF5-176" target="EjYSQzHJDgB1Ex0AdEF5-179">
          <mxGeometry relative="1" as="geometry" />
        </mxCell>
        <mxCell id="EjYSQzHJDgB1Ex0AdEF5-190" value="[ Yes ]" style="edgeLabel;html=1;align=center;verticalAlign=middle;resizable=0;points=[];" vertex="1" connectable="0" parent="EjYSQzHJDgB1Ex0AdEF5-180">
          <mxGeometry x="-0.4604" y="-1" relative="1" as="geometry">
            <mxPoint as="offset" />
          </mxGeometry>
        </mxCell>
        <mxCell id="EjYSQzHJDgB1Ex0AdEF5-189" style="edgeStyle=orthogonalEdgeStyle;rounded=0;orthogonalLoop=1;jettySize=auto;html=1;entryX=0.5;entryY=0;entryDx=0;entryDy=0;" edge="1" parent="1" source="EjYSQzHJDgB1Ex0AdEF5-176" target="EjYSQzHJDgB1Ex0AdEF5-187">
          <mxGeometry relative="1" as="geometry" />
        </mxCell>
        <mxCell id="EjYSQzHJDgB1Ex0AdEF5-191" value="[ No ]" style="edgeLabel;html=1;align=center;verticalAlign=middle;resizable=0;points=[];" vertex="1" connectable="0" parent="EjYSQzHJDgB1Ex0AdEF5-189">
          <mxGeometry x="-0.8931" y="1" relative="1" as="geometry">
            <mxPoint as="offset" />
          </mxGeometry>
        </mxCell>
        <mxCell id="EjYSQzHJDgB1Ex0AdEF5-176" value="Questionnaire&#xa;Required" style="rhombus;fillColor=#ffffc0;strokeColor=#ff0000;" vertex="1" parent="1">
          <mxGeometry x="767.5" y="-210" width="115" height="80" as="geometry" />
        </mxCell>
        <mxCell id="EjYSQzHJDgB1Ex0AdEF5-182" value="" style="edgeStyle=orthogonalEdgeStyle;rounded=0;orthogonalLoop=1;jettySize=auto;html=1;" edge="1" parent="1" source="EjYSQzHJDgB1Ex0AdEF5-179" target="EjYSQzHJDgB1Ex0AdEF5-181">
          <mxGeometry relative="1" as="geometry" />
        </mxCell>
        <mxCell id="EjYSQzHJDgB1Ex0AdEF5-179" value="Create&lt;br&gt;Questionnaire" style="whiteSpace=wrap;html=1;" vertex="1" parent="1">
          <mxGeometry x="640" y="-120" width="120" height="60" as="geometry" />
        </mxCell>
        <mxCell id="EjYSQzHJDgB1Ex0AdEF5-184" value="" style="edgeStyle=orthogonalEdgeStyle;rounded=0;orthogonalLoop=1;jettySize=auto;html=1;" edge="1" parent="1" source="EjYSQzHJDgB1Ex0AdEF5-181" target="EjYSQzHJDgB1Ex0AdEF5-183">
          <mxGeometry relative="1" as="geometry" />
        </mxCell>
        <mxCell id="EjYSQzHJDgB1Ex0AdEF5-181" value="Test Attempted By Candidates" style="whiteSpace=wrap;html=1;" vertex="1" parent="1">
          <mxGeometry x="640" y="-10" width="120" height="60" as="geometry" />
        </mxCell>
        <mxCell id="EjYSQzHJDgB1Ex0AdEF5-186" value="" style="edgeStyle=orthogonalEdgeStyle;rounded=0;orthogonalLoop=1;jettySize=auto;html=1;" edge="1" parent="1" source="EjYSQzHJDgB1Ex0AdEF5-183" target="EjYSQzHJDgB1Ex0AdEF5-185">
          <mxGeometry relative="1" as="geometry" />
        </mxCell>
        <mxCell id="EjYSQzHJDgB1Ex0AdEF5-183" value="Scores Collected" style="whiteSpace=wrap;html=1;" vertex="1" parent="1">
          <mxGeometry x="640" y="100" width="120" height="60" as="geometry" />
        </mxCell>
        <mxCell id="EjYSQzHJDgB1Ex0AdEF5-188" value="" style="edgeStyle=orthogonalEdgeStyle;rounded=0;orthogonalLoop=1;jettySize=auto;html=1;" edge="1" parent="1" source="EjYSQzHJDgB1Ex0AdEF5-185" target="EjYSQzHJDgB1Ex0AdEF5-187">
          <mxGeometry relative="1" as="geometry" />
        </mxCell>
        <mxCell id="EjYSQzHJDgB1Ex0AdEF5-185" value="Get Final &lt;br&gt;Ranked List" style="whiteSpace=wrap;html=1;" vertex="1" parent="1">
          <mxGeometry x="640" y="210" width="120" height="60" as="geometry" />
        </mxCell>
        <mxCell id="EjYSQzHJDgB1Ex0AdEF5-187" value="Message Personally Shortlisted Candidates" style="whiteSpace=wrap;html=1;" vertex="1" parent="1">
          <mxGeometry x="900" y="210" width="120" height="60" as="geometry" />
        </mxCell>
        <mxCell id="EjYSQzHJDgB1Ex0AdEF5-192" value="" style="ellipse;shape=endState;fillColor=#000000;strokeColor=#ff0000" vertex="1" parent="1">
          <mxGeometry x="1050" y="225" width="30" height="30" as="geometry" />
        </mxCell>
        <mxCell id="EjYSQzHJDgB1Ex0AdEF5-193" style="edgeStyle=orthogonalEdgeStyle;rounded=0;orthogonalLoop=1;jettySize=auto;html=1;entryX=-0.102;entryY=0.528;entryDx=0;entryDy=0;entryPerimeter=0;" edge="1" parent="1" source="EjYSQzHJDgB1Ex0AdEF5-187" target="EjYSQzHJDgB1Ex0AdEF5-192">
          <mxGeometry relative="1" as="geometry" />
        </mxCell>
      </root>
    </mxGraphModel>
  </diagram>
</mxfile>
